<?xml version="1.0" encoding="UTF-8"?>
<svg id="Layer_2" data-name="Layer 2" xmlns="http://www.w3.org/2000/svg" viewBox="0 0 656 883">
  <defs>
    <style>
      .cls-1 {
        fill: #fff;
        stroke: #000;
        stroke-width: 20px;
        filter: drop-shadow(0 0 40px rgba(255, 255, 255, 0.8));
      }
    </style>
  </defs>
  <g id="Layer_1-2" data-name="Layer 1">
    <g>
      <path class="cls-1" d="M328,877c-62.7,0-117.59-14.94-163.16-44.4-39.43-25.49-72.38-62.11-97.95-108.86C11.93,623.26,6,504.43,6,458c0-70.56,33.34-136.98,93.89-187,60.88-50.3,141.89-78,228.11-78s167.23,27.7,228.11,78c60.55,50.02,93.89,116.44,93.89,187,0,111.34-16.74,198.31-51.19,265.9-23.85,46.8-56.35,83.36-96.58,108.66-46.89,29.49-105.51,44.44-174.23,44.44Z"/>
      <path class="cls-1" d="M328,199c42.93,0,84.55,6.94,123.71,20.62,37.71,13.18,71.55,32.02,100.57,56,28.86,23.84,51.48,51.55,67.25,82.36,16.23,31.7,24.46,65.35,24.46,100.02,0,47.29-2.96,89.06-9.05,127.68-8.19,51.95-22.15,97.54-41.49,135.5-23.35,45.83-55.12,81.59-94.43,106.31-22.09,13.89-47.04,24.59-74.16,31.8-29.25,7.78-61.84,11.72-96.88,11.72-61.52,0-115.32-14.61-159.91-43.44-38.58-24.94-70.86-60.84-95.94-106.7-21.25-38.85-37.24-84.5-47.53-135.69-10.43-51.89-12.62-97.8-12.62-127.18,0-34.67,8.23-68.32,24.46-100.02,15.77-30.81,38.4-58.52,67.25-82.36,29.02-23.98,62.86-42.82,100.57-56,39.16-13.69,80.79-20.62,123.71-20.62M328,187C146.85,187,0,308.33,0,458s55,425,328,425c299.08,0,328-275.33,328-425S509.15,187,328,187h0Z"/>
    </g>
    <g>
      <path class="cls-1" d="M328,360c-97.6,0-177-79.4-177-177S230.4,6,328,6s177,79.4,177,177-79.4,177-177,177Z"/>
      <path d="M328,12c94.44,0,171,76.56,171,171s-76.56,171-171,171-171-76.56-171-171S233.56,12,328,12M328,0c-24.7,0-48.67,4.84-71.24,14.39-21.79,9.22-41.36,22.41-58.17,39.21-16.8,16.8-30,36.37-39.21,58.17-9.55,22.57-14.39,46.54-14.39,71.24s4.84,48.67,14.39,71.24c9.22,21.79,22.41,41.36,39.21,58.17,16.8,16.8,36.37,30,58.17,39.21,22.57,9.55,46.54,14.39,71.24,14.39s48.67-4.84,71.24-14.39c21.79-9.22,41.36-22.41,58.17-39.21,16.8-16.8,30-36.37,39.21-58.17,9.55-22.57,14.39-46.54,14.39-71.24s-4.84-48.67-14.39-71.24c-9.22-21.79-22.41-41.36-39.21-58.17-16.8-16.8-36.37-30-58.17-39.21-22.57-9.55-46.54-14.39-71.24-14.39h0Z"/>
    </g>
  </g>
</svg>